HIERARCHY
ROOT Hips
{
 OFFSET 0.000000 0.000000 0.000000
 CHANNELS 6 Xposition Yposition Zposition Yrotation Xrotation Zrotation
 JOINT Chest
 {
  OFFSET 0.000000 9.585900 0.002600
  CHANNELS 3 Yrotation Xrotation Zrotation
  JOINT Chest2
  {
   OFFSET 0.000000 9.601200 -0.005300
   CHANNELS 3 Yrotation Xrotation Zrotation
   JOINT Chest3
   {
    OFFSET 0.000000 9.561800 0.000000
    CHANNELS 3 Yrotation Xrotation Zrotation
    JOINT Chest4
    {
     OFFSET 0.000000 9.552100 0.000000
     CHANNELS 3 Yrotation Xrotation Zrotation
     JOINT Neck
     {
      OFFSET 0.000000 14.453000 0.000000
      CHANNELS 3 Yrotation Xrotation Zrotation
      JOINT Head
      {
       OFFSET 0.000000 8.936500 -0.011300
       CHANNELS 3 Yrotation Xrotation Zrotation
       End Site
       {
        OFFSET 0.000000 17.073600 -0.006000
       }
      }
     }
     JOINT RightCollar
     {
      OFFSET -2.921100 9.558500 0.000000
      CHANNELS 3 Yrotation Xrotation Zrotation
      JOINT RightShoulder
      {
       OFFSET -13.519700 0.000000 0.000000
       CHANNELS 3 Yrotation Xrotation Zrotation
       JOINT RightElbow
       {
        OFFSET 0.000000 -29.696600 0.000000
        CHANNELS 3 Yrotation Xrotation Zrotation
        JOINT RightWrist
        {
         OFFSET 0.000000 -24.004700 0.000000
         CHANNELS 3 Yrotation Xrotation Zrotation
         End Site
         {
          OFFSET 0.000000 -17.728500 0.000000
         }
        }
       }
      }
     }
     JOINT LeftCollar
     {
      OFFSET 2.921100 9.558500 0.000000
      CHANNELS 3 Yrotation Xrotation Zrotation
      JOINT LeftShoulder
      {
       OFFSET 13.519700 0.000000 0.000000
       CHANNELS 3 Yrotation Xrotation Zrotation
       JOINT LeftElbow
       {
        OFFSET 0.000000 -29.696600 0.000000
        CHANNELS 3 Yrotation Xrotation Zrotation
        JOINT LeftWrist
        {
         OFFSET 0.000000 -24.004700 0.000000
         CHANNELS 3 Yrotation Xrotation Zrotation
         End Site
         {
          OFFSET 0.000000 -17.728500 0.000000
         }
        }
       }
      }
     }
    }
   }
  }
 }
 JOINT RightHip
 {
  OFFSET -7.771700 -0.012900 -0.001300
  CHANNELS 3 Yrotation Xrotation Zrotation
  JOINT RightKnee
  {
   OFFSET 0.000000 -40.869800 0.001200
   CHANNELS 3 Yrotation Xrotation Zrotation
   JOINT RightAnkle
   {
    OFFSET 0.000000 -39.717900 0.002100
    CHANNELS 3 Yrotation Xrotation Zrotation
    JOINT RightToe
    {
     OFFSET 0.000000 -4.965400 11.033500
     CHANNELS 3 Yrotation Xrotation Zrotation
     End Site
     {
      OFFSET 0.000000 -1.423100 5.872300
     }
    }
   }
  }
 }
 JOINT LeftHip
 {
  OFFSET 7.771700 -0.012900 -0.001300
  CHANNELS 3 Yrotation Xrotation Zrotation
  JOINT LeftKnee
  {
   OFFSET 0.000000 -40.869800 0.001200
   CHANNELS 3 Yrotation Xrotation Zrotation
   JOINT LeftAnkle
   {
    OFFSET 0.000000 -39.717900 0.002100
    CHANNELS 3 Yrotation Xrotation Zrotation
    JOINT LeftToe
    {
     OFFSET 0.000000 -4.965400 11.033500
     CHANNELS 3 Yrotation Xrotation Zrotation
     End Site
     {
      OFFSET 0.000000 -1.423100 5.872300
     }
    }
   }
  }
 }
}
MOTION
Frames: 9
Frame Time: 0.008333
-67.680962 46.639243 -2.093280 173.042019 -31.706542 -2.807121 0.017588 19.618663 1.464526 -0.024587 2.386061 0.197241 -0.022065 3.919889 0.326295 0.000383 16.929048 1.411945 -0.131917 16.529616 -2.249827 0.516398 -5.077899 -4.119987 0.465230 0.664953 -2.009447 4.405780 -8.448768 -15.568573 -47.819097 -59.123621 95.367716 -0.187045 8.881399 -18.034784 -0.768766 -0.353437 2.188688 -4.958640 -4.962953 12.924631 68.043808 -71.444828 -104.132613 -0.918129 11.922730 12.414354 -8.252644 -54.865378 -2.921846 -171.073441 80.909306 -160.449900 -7.691739 -13.220277 -9.269106 -0.032553 -0.127450 0.061241 -0.996731 -57.224934 12.915474 -119.881920 81.452591 -123.271592 8.332363 -8.000662 4.684292 0.109330 0.180775 0.045387
-67.683111 46.638467 -2.093854 173.064030 -31.712810 -2.802789 0.015284 19.621407 1.459481 -0.025435 2.385874 0.197006 -0.019757 3.915196 0.326554 -0.019279 16.936353 1.409528 -0.119071 16.529261 -2.251805 0.537655 -5.055777 -4.118394 0.475705 0.661789 -2.012647 4.433495 -8.457938 -15.589856 -47.850099 -59.115343 95.381419 -0.181027 8.876846 -18.032707 -0.768526 -0.352303 2.187743 -4.936487 -4.971562 12.904448 68.109377 -71.441285 -104.164799 -0.937506 11.952468 12.376119 -8.230011 -54.861266 -2.943432 -171.093400 80.910061 -160.490265 -7.703037 -13.220620 -9.247690 -0.045549 -0.122368 0.051800 -0.976226 -57.220236 12.887059 -119.815924 81.446627 -123.207598 8.328373 -7.990359 4.690833 0.130453 0.176662 0.049243
-67.684676 46.636005 -2.091205 173.087681 -31.699519 -2.801585 0.025429 19.592932 1.466430 -0.040810 2.392337 0.191511 -0.023356 3.916570 0.326748 -0.018265 16.932517 1.406732 -0.118659 16.538913 -2.249627 0.544164 -5.044500 -4.117481 0.471408 0.668265 -2.011081 4.462506 -8.466264 -15.612783 -47.882829 -59.091775 95.383045 -0.158786 8.873049 -18.017188 -0.773325 -0.344267 2.186276 -4.922639 -4.974483 12.888240 68.117949 -71.449983 -104.172741 -0.946281 11.960848 12.367132 -8.208323 -54.880097 -2.950375 -170.914647 80.900569 -160.316706 -7.738667 -13.222399 -9.241025 -0.021444 -0.122600 0.057512 -0.965236 -57.234907 12.872323 -119.713636 81.453060 -123.122388 8.324340 -7.970182 4.714364 0.135624 0.171844 0.048232
-67.684051 46.635050 -2.090147 173.099174 -31.702748 -2.803227 0.031525 19.590358 1.473018 -0.043262 2.391098 0.190634 -0.021614 3.916784 0.326603 -0.008297 16.925451 1.403354 -0.125207 16.550835 -2.244516 0.551385 -5.032841 -4.117673 0.488166 0.673736 -2.007647 4.458115 -8.472835 -15.634022 -47.914169 -59.086175 95.402092 -0.159581 8.873739 -18.020153 -0.788956 -0.334461 2.190768 -4.908514 -4.974602 12.868126 68.124948 -71.461143 -104.178240 -0.948994 11.954252 12.376170 -8.209836 -54.880738 -2.939010 -170.887751 80.899651 -160.311417 -7.745482 -13.215628 -9.227800 -0.020701 -0.125373 0.050916 -0.957276 -57.231904 12.870628 -119.635421 81.447666 -123.047709 8.331358 -7.962282 4.705653 0.112894 0.170508 0.062808
-67.685814 46.634146 -2.089168 173.118965 -31.706456 -2.793259 0.016750 19.592156 1.457217 -0.035337 2.387220 0.193301 -0.029931 3.919625 0.323845 -0.000072 16.919153 1.402003 -0.121144 16.557455 -2.244365 0.551925 -5.022355 -4.114853 0.491882 0.680530 -2.007780 4.469196 -8.488420 -15.655815 -47.935871 -59.104170 95.447834 -0.204798 8.872032 -18.062941 -0.790935 -0.328343 2.194324 -4.901884 -4.972134 12.845992 68.121245 -71.476270 -104.175367 -0.950855 11.938844 12.389028 -8.196364 -54.881932 -2.959252 -170.939751 80.899012 -160.386339 -7.759745 -13.217257 -9.206542 -0.030066 -0.123370 0.039688 -0.934499 -57.226494 12.840247 -119.543761 81.445261 -122.958067 8.305334 -7.951398 4.706475 0.115471 0.171148 0.067986
-67.689237 46.632826 -2.087284 173.144807 -31.704373 -2.776253 -0.006832 19.588948 1.430525 -0.008246 2.379440 0.199582 -0.057228 3.925652 0.318274 0.005254 16.912519 1.399176 -0.116795 16.563827 -2.244925 0.541724 -5.016124 -4.106105 0.492926 0.687771 -2.006129 4.476932 -8.504035 -15.676401 -47.948512 -59.108320 95.478057 -0.231064 8.871153 -18.090132 -0.765389 -0.329302 2.197562 -4.920816 -4.960407 12.827382 68.106503 -71.493892 -104.174291 -0.935322 11.913690 12.420337 -8.174059 -54.890947 -2.998938 -170.895234 80.892083 -160.359883 -7.769526 -13.221654 -9.190013 -0.036389 -0.121866 0.032089 -0.906685 -57.226903 12.789570 -119.457290 81.451362 -122.884481 8.301214 -7.936222 4.719275 0.102969 0.168695 0.065394
-67.690670 46.631500 -2.084388 173.170799 -31.699256 -2.771274 0.002972 19.577158 1.431124 -0.027353 2.381412 0.194785 -0.040773 3.917198 0.320022 -0.023632 16.920588 1.396592 -0.107539 16.565264 -2.249641 0.553573 -5.004813 -4.109286 0.503299 0.685202 -2.009113 4.479127 -8.512861 -15.687853 -47.957198 -59.111449 95.496522 -0.228639 8.878671 -18.086082 -0.747995 -0.327752 2.201078 -4.919950 -4.954449 12.811020 68.105164 -71.498166 -104.172217 -0.932827 11.906671 12.432111 -8.166916 -54.901163 -3.022852 -170.828227 80.884628 -160.302562 -7.768045 -13.219665 -9.185755 -0.027492 -0.128224 0.019732 -0.885473 -57.229566 12.762187 -119.318720 81.453266 -122.754067 8.284036 -7.922649 4.730040 0.104409 0.171810 0.068282
-67.694602 46.628875 -2.079375 173.205415 -31.678017 -2.757052 -0.029084 19.555205 1.401150 -0.022709 2.379437 0.194955 -0.046247 3.917518 0.319600 -0.028337 16.919283 1.395306 -0.103515 16.568328 -2.251004 0.592891 -4.983236 -4.136520 0.518626 0.678664 -2.014791 4.475690 -8.514917 -15.688520 -47.961193 -59.118432 95.507402 -0.224823 8.885891 -18.080481 -0.727122 -0.326965 2.202292 -4.919479 -4.945210 12.800895 68.116309 -71.478307 -104.161194 -0.955182 11.902110 12.406095 -8.141813 -54.927155 -3.077762 -170.787890 80.879964 -160.263116 -7.762451 -13.208027 -9.190121 -0.031414 -0.139102 0.027493 -0.828359 -57.249668 12.704629 -119.124457 81.452783 -122.569409 8.236648 -7.925398 4.749056 0.129210 0.197706 0.083891
-67.696352 46.628299 -2.076883 173.227936 -31.678127 -2.747309 -0.045278 19.553979 1.382663 -0.027832 2.380102 0.194442 -0.041487 3.915049 0.319499 -0.001056 16.901159 1.388654 -0.125222 16.587705 -2.237119 0.614990 -4.968953 -4.151940 0.499149 0.689192 -2.002854 4.472914 -8.513969 -15.685853 -47.961460 -59.123446 95.509441 -0.211387 8.896290 -18.069688 -0.737972 -0.310959 2.216446 -4.926086 -4.935225 12.797574 68.120213 -71.467947 -104.166554 -0.948471 11.891136 12.418436 -8.125555 -54.929927 -3.114726 -170.785599 80.876780 -160.267823 -7.753305 -13.210445 -9.188865 -0.039352 -0.137120 0.029750 -0.797611 -57.248605 12.667124 -119.018957 81.454456 -122.470862 8.223958 -7.909386 4.761767 0.140276 0.194654 0.086402
